<svg width="46" height="59" viewBox="0 0 46 59" fill="none" xmlns="http://www.w3.org/2000/svg">
<mask id="path-1-outside-1_300_54" maskUnits="userSpaceOnUse" x="6" y="16" width="34" height="27" fill="black">
<rect fill="white" x="6" y="16" width="34" height="27"/>
<path d="M9.392 41L19.184 18.6H26.608L36.4 41H28.592L21.36 22.184H24.304L17.072 41H9.392ZM15.216 37.096L17.136 31.656H27.44L29.36 37.096H15.216Z"/>
</mask>
<path d="M9.392 41L19.184 18.6H26.608L36.4 41H28.592L21.36 22.184H24.304L17.072 41H9.392ZM15.216 37.096L17.136 31.656H27.44L29.36 37.096H15.216Z" fill="#627079"/>
<path d="M9.392 41L7.55944 40.1989L6.33497 43H9.392V41ZM19.184 18.6V16.6H17.8755L17.3514 17.7989L19.184 18.6ZM26.608 18.6L28.4406 17.7989L27.9165 16.6H26.608V18.6ZM36.4 41V43H39.457L38.2326 40.1989L36.4 41ZM28.592 41L26.7251 41.7175L27.2181 43H28.592V41ZM21.36 22.184V20.184H18.4487L19.4931 22.9015L21.36 22.184ZM24.304 22.184L26.1709 22.9015L27.2153 20.184H24.304V22.184ZM17.072 41V43H18.4459L18.9389 41.7175L17.072 41ZM15.216 37.096L13.33 36.4304L12.3892 39.096H15.216V37.096ZM17.136 31.656V29.656H15.721L15.25 30.9904L17.136 31.656ZM27.44 31.656L29.326 30.9904L28.855 29.656H27.44V31.656ZM29.36 37.096V39.096H32.1868L31.246 36.4304L29.36 37.096ZM11.2246 41.8011L21.0166 19.4011L17.3514 17.7989L7.55944 40.1989L11.2246 41.8011ZM19.184 20.6H26.608V16.6H19.184V20.6ZM24.7754 19.4011L34.5674 41.8011L38.2326 40.1989L28.4406 17.7989L24.7754 19.4011ZM36.4 39H28.592V43H36.4V39ZM30.4589 40.2825L23.2269 21.4665L19.4931 22.9015L26.7251 41.7175L30.4589 40.2825ZM21.36 24.184H24.304V20.184H21.36V24.184ZM22.4371 21.4665L15.2051 40.2825L18.9389 41.7175L26.1709 22.9015L22.4371 21.4665ZM17.072 39H9.392V43H17.072V39ZM17.102 37.7616L19.022 32.3216L15.25 30.9904L13.33 36.4304L17.102 37.7616ZM17.136 33.656H27.44V29.656H17.136V33.656ZM25.554 32.3216L27.474 37.7616L31.246 36.4304L29.326 30.9904L25.554 32.3216ZM29.36 35.096H15.216V39.096H29.36V35.096Z" fill="#33384B" mask="url(#path-1-outside-1_300_54)"/>
</svg>
