<svg width="31" height="39" viewBox="0 0 31 39" fill="none" xmlns="http://www.w3.org/2000/svg">
<mask id="path-1-inside-1_186_2241" fill="white">
<rect width="31" height="39" rx="1"/>
</mask>
<rect width="31" height="39" rx="1" fill="#627079" stroke="#33384B" stroke-width="4" mask="url(#path-1-inside-1_186_2241)"/>
<mask id="path-2-outside-2_186_2241" maskUnits="userSpaceOnUse" x="6" y="8" width="18" height="24" fill="black">
<rect fill="white" x="6" y="8" width="18" height="24"/>
<path d="M15.36 27.32C14.1867 27.32 13.0533 27.1867 11.96 26.92C10.8667 26.6533 9.96667 26.3067 9.26 25.88L10.78 22.44C11.4467 22.8267 12.1867 23.14 13 23.38C13.8267 23.6067 14.6267 23.72 15.4 23.72C15.8533 23.72 16.2067 23.6933 16.46 23.64C16.7267 23.5733 16.92 23.4867 17.04 23.38C17.16 23.26 17.22 23.12 17.22 22.96C17.22 22.7067 17.08 22.5067 16.8 22.36C16.52 22.2133 16.1467 22.0933 15.68 22C15.2267 21.8933 14.7267 21.7867 14.18 21.68C13.6333 21.56 13.08 21.4067 12.52 21.22C11.9733 21.0333 11.4667 20.7867 11 20.48C10.5467 20.1733 10.18 19.7733 9.9 19.28C9.62 18.7733 9.48 18.1467 9.48 17.4C9.48 16.5333 9.72 15.7467 10.2 15.04C10.6933 14.32 11.42 13.7467 12.38 13.32C13.3533 12.8933 14.56 12.68 16 12.68C16.9467 12.68 17.88 12.78 18.8 12.98C19.72 13.18 20.5467 13.4867 21.28 13.9L19.86 17.32C19.1667 16.9733 18.4933 16.7133 17.84 16.54C17.2 16.3667 16.5733 16.28 15.96 16.28C15.5067 16.28 15.1467 16.32 14.88 16.4C14.6133 16.48 14.42 16.5867 14.3 16.72C14.1933 16.8533 14.14 17 14.14 17.16C14.14 17.4 14.28 17.5933 14.56 17.74C14.84 17.8733 15.2067 17.9867 15.66 18.08C16.1267 18.1733 16.6333 18.2733 17.18 18.38C17.74 18.4867 18.2933 18.6333 18.84 18.82C19.3867 19.0067 19.8867 19.2533 20.34 19.56C20.8067 19.8667 21.18 20.2667 21.46 20.76C21.74 21.2533 21.88 21.8667 21.88 22.6C21.88 23.4533 21.6333 24.24 21.14 24.96C20.66 25.6667 19.94 26.24 18.98 26.68C18.02 27.1067 16.8133 27.32 15.36 27.32ZM14.4 29.4V26.8H17.22V29.4H14.4ZM14.4 13.2V10.6H17.22V13.2H14.4Z"/>
</mask>
<path d="M15.36 27.32C14.1867 27.32 13.0533 27.1867 11.96 26.92C10.8667 26.6533 9.96667 26.3067 9.26 25.88L10.78 22.44C11.4467 22.8267 12.1867 23.14 13 23.38C13.8267 23.6067 14.6267 23.72 15.4 23.72C15.8533 23.72 16.2067 23.6933 16.46 23.64C16.7267 23.5733 16.92 23.4867 17.04 23.38C17.16 23.26 17.22 23.12 17.22 22.96C17.22 22.7067 17.08 22.5067 16.8 22.36C16.52 22.2133 16.1467 22.0933 15.68 22C15.2267 21.8933 14.7267 21.7867 14.18 21.68C13.6333 21.56 13.08 21.4067 12.52 21.22C11.9733 21.0333 11.4667 20.7867 11 20.48C10.5467 20.1733 10.18 19.7733 9.9 19.28C9.62 18.7733 9.48 18.1467 9.48 17.4C9.48 16.5333 9.72 15.7467 10.2 15.04C10.6933 14.32 11.42 13.7467 12.38 13.32C13.3533 12.8933 14.56 12.68 16 12.68C16.9467 12.68 17.88 12.78 18.8 12.98C19.72 13.18 20.5467 13.4867 21.28 13.9L19.86 17.32C19.1667 16.9733 18.4933 16.7133 17.84 16.54C17.2 16.3667 16.5733 16.28 15.96 16.28C15.5067 16.28 15.1467 16.32 14.88 16.4C14.6133 16.48 14.42 16.5867 14.3 16.72C14.1933 16.8533 14.14 17 14.14 17.16C14.14 17.4 14.28 17.5933 14.56 17.74C14.84 17.8733 15.2067 17.9867 15.66 18.08C16.1267 18.1733 16.6333 18.2733 17.18 18.38C17.74 18.4867 18.2933 18.6333 18.84 18.82C19.3867 19.0067 19.8867 19.2533 20.34 19.56C20.8067 19.8667 21.18 20.2667 21.46 20.76C21.74 21.2533 21.88 21.8667 21.88 22.6C21.88 23.4533 21.6333 24.24 21.14 24.96C20.66 25.6667 19.94 26.24 18.98 26.68C18.02 27.1067 16.8133 27.32 15.36 27.32ZM14.4 29.4V26.8H17.22V29.4H14.4ZM14.4 13.2V10.6H17.22V13.2H14.4Z" fill="#A2B7CA"/>
<path d="M11.96 26.92L12.4339 24.977L11.96 26.92ZM9.26 25.88L7.43063 25.0717L6.71904 26.6821L8.22626 27.5921L9.26 25.88ZM10.78 22.44L11.7834 20.7099L9.85271 19.5901L8.95063 21.6317L10.78 22.44ZM13 23.38L12.434 25.2982L12.4525 25.3037L12.4711 25.3088L13 23.38ZM16.46 23.64L16.872 25.5971L16.9087 25.5894L16.9451 25.5803L16.46 23.64ZM17.04 23.38L18.3687 24.8748L18.4127 24.8358L18.4542 24.7942L17.04 23.38ZM16.8 22.36L15.872 24.1317H15.872L16.8 22.36ZM15.68 22L15.2219 23.9468L15.2547 23.9546L15.2878 23.9612L15.68 22ZM14.18 21.68L13.7512 23.6335L13.774 23.6385L13.797 23.643L14.18 21.68ZM12.52 21.22L11.8737 23.1127L11.8806 23.1151L11.8875 23.1174L12.52 21.22ZM11 20.48L9.87938 22.1366L9.89046 22.1441L9.90164 22.1514L11 20.48ZM9.9 19.28L8.14952 20.2474L8.15502 20.2573L8.16063 20.2672L9.9 19.28ZM10.2 15.04L8.55012 13.9095L8.54557 13.9162L10.2 15.04ZM12.38 13.32L11.577 11.4882L11.5677 11.4924L12.38 13.32ZM18.8 12.98L18.3751 14.9344L18.8 12.98ZM21.28 13.9L23.1271 14.6669L23.8073 13.0287L22.262 12.1577L21.28 13.9ZM19.86 17.32L18.9656 19.1089L20.8844 20.0683L21.7071 18.0869L19.86 17.32ZM17.84 16.54L17.3172 18.4705L17.3271 18.4731L17.84 16.54ZM14.88 16.4L14.3053 14.4843H14.3053L14.88 16.4ZM14.3 16.72L12.8134 15.3821L12.7746 15.4252L12.7383 15.4706L14.3 16.72ZM14.56 17.74L13.632 19.5117L13.6657 19.5293L13.7001 19.5457L14.56 17.74ZM15.66 18.08L15.2567 20.0389L15.2678 20.0412L15.66 18.08ZM17.18 18.38L16.797 20.343L16.8058 20.3447L17.18 18.38ZM18.84 18.82L18.1937 20.7127H18.1937L18.84 18.82ZM20.34 19.56L19.2194 21.2166L19.2305 21.2241L19.2416 21.2314L20.34 19.56ZM21.46 20.76L19.7206 21.7472L19.7206 21.7472L21.46 20.76ZM21.14 24.96L19.4901 23.8295L19.4856 23.8362L21.14 24.96ZM18.98 26.68L19.7923 28.5076L19.8028 28.5029L19.8133 28.4981L18.98 26.68ZM14.4 29.4H12.4V31.4H14.4V29.4ZM14.4 26.8V24.8H12.4V26.8H14.4ZM17.22 26.8H19.22V24.8H17.22V26.8ZM17.22 29.4V31.4H19.22V29.4H17.22ZM14.4 13.2H12.4V15.2H14.4V13.2ZM14.4 10.6V8.6H12.4V10.6H14.4ZM17.22 10.6H19.22V8.6H17.22V10.6ZM17.22 13.2V15.2H19.22V13.2H17.22ZM15.36 25.32C14.3395 25.32 13.3656 25.2042 12.4339 24.977L11.4861 28.863C12.741 29.1691 14.0338 29.32 15.36 29.32V25.32ZM12.4339 24.977C11.4714 24.7422 10.7764 24.4593 10.2937 24.1679L8.22626 27.5921C9.15692 28.154 10.2619 28.5645 11.4861 28.863L12.4339 24.977ZM11.0894 26.6883L12.6094 23.2483L8.95063 21.6317L7.43063 25.0717L11.0894 26.6883ZM9.77656 24.1701C10.594 24.6442 11.483 25.0176 12.434 25.2982L13.566 21.4618C12.8904 21.2624 12.2993 21.0092 11.7834 20.7099L9.77656 24.1701ZM12.4711 25.3088C13.4517 25.5777 14.4298 25.72 15.4 25.72V21.72C14.8235 21.72 14.2016 21.6357 13.5289 21.4512L12.4711 25.3088ZM15.4 25.72C15.9052 25.72 16.4188 25.6925 16.872 25.5971L16.048 21.6829C15.9945 21.6942 15.8015 21.72 15.4 21.72V25.72ZM16.9451 25.5803C17.3309 25.4838 17.8928 25.2978 18.3687 24.8748L15.7113 21.8852C15.8434 21.7677 15.9533 21.7151 15.9869 21.7C16.0238 21.6834 16.0257 21.687 15.9749 21.6997L16.9451 25.5803ZM18.4542 24.7942C18.924 24.3244 19.22 23.6851 19.22 22.96H15.22C15.22 22.7831 15.2547 22.5886 15.3367 22.3972C15.4178 22.208 15.5264 22.0652 15.6258 21.9658L18.4542 24.7942ZM19.22 22.96C19.22 21.7667 18.4732 20.9787 17.728 20.5883L15.872 24.1317C15.8095 24.0989 15.636 23.9947 15.4765 23.7669C15.302 23.5175 15.22 23.2272 15.22 22.96H19.22ZM17.728 20.5883C17.2172 20.3208 16.6414 20.1527 16.0722 20.0388L15.2878 23.9612C15.6519 24.034 15.8228 24.1059 15.872 24.1317L17.728 20.5883ZM16.1381 20.0532C15.6556 19.9396 15.1301 19.8277 14.563 19.717L13.797 23.643C14.3232 23.7457 14.7978 23.847 15.2219 23.9468L16.1381 20.0532ZM14.6088 19.7265C14.1346 19.6224 13.6492 19.4882 13.1525 19.3226L11.8875 23.1174C12.5108 23.3251 13.1321 23.4976 13.7512 23.6335L14.6088 19.7265ZM13.1663 19.3273C12.7735 19.1932 12.4195 19.0196 12.0984 18.8086L9.90164 22.1514C10.5139 22.5537 11.1732 22.8735 11.8737 23.1127L13.1663 19.3273ZM12.1206 18.8234C11.9317 18.6957 11.7731 18.5284 11.6394 18.2928L8.16063 20.2672C8.5869 21.0183 9.16161 21.651 9.87938 22.1366L12.1206 18.8234ZM11.6505 18.3126C11.5749 18.1758 11.48 17.9038 11.48 17.4H7.48C7.48 18.3895 7.66514 19.3709 8.14952 20.2474L11.6505 18.3126ZM11.48 17.4C11.48 16.9279 11.6031 16.5338 11.8544 16.1638L8.54557 13.9162C7.83693 14.9595 7.48 16.1388 7.48 17.4H11.48ZM11.8499 16.1705C12.0948 15.8129 12.5013 15.4547 13.1923 15.1476L11.5677 11.4924C10.3387 12.0386 9.29184 12.8271 8.55014 13.9095L11.8499 16.1705ZM13.183 15.1517C13.8303 14.868 14.7439 14.68 16 14.68V10.68C14.3761 10.68 12.8764 10.9187 11.577 11.4883L13.183 15.1517ZM16 14.68C16.8046 14.68 17.5955 14.7649 18.3751 14.9344L19.2249 11.0256C18.1645 10.7951 17.0887 10.68 16 10.68V14.68ZM18.3751 14.9344C19.1227 15.0969 19.758 15.3379 20.298 15.6423L22.262 12.1577C21.3354 11.6354 20.3173 11.2631 19.2249 11.0256L18.3751 14.9344ZM19.4329 13.1331L18.0129 16.5531L21.7071 18.0869L23.1271 14.6669L19.4329 13.1331ZM20.7544 15.5311C19.9565 15.1322 19.1555 14.8198 18.3529 14.6069L17.3271 18.4731C17.8312 18.6068 18.3768 18.8145 18.9656 19.1089L20.7544 15.5311ZM18.3628 14.6095C17.5661 14.3938 16.7636 14.28 15.96 14.28V18.28C16.3831 18.28 16.8339 18.3396 17.3172 18.4705L18.3628 14.6095ZM15.96 14.28C15.4178 14.28 14.8381 14.3245 14.3053 14.4843L15.4547 18.3157C15.4441 18.3188 15.4771 18.3082 15.5709 18.2978C15.662 18.2876 15.7897 18.28 15.96 18.28V14.28ZM14.3053 14.4843C13.8653 14.6163 13.2787 14.8651 12.8134 15.3821L15.7866 18.0579C15.6675 18.1903 15.5564 18.2607 15.5012 18.2912C15.4463 18.3214 15.4239 18.3249 15.4547 18.3157L14.3053 14.4843ZM12.7383 15.4706C12.3683 15.933 12.14 16.5142 12.14 17.16H16.14C16.14 17.3071 16.1146 17.4622 16.0596 17.6135C16.0052 17.7632 15.9317 17.8819 15.8617 17.9694L12.7383 15.4706ZM12.14 17.16C12.14 18.3836 12.9363 19.1473 13.632 19.5117L15.488 15.9683C15.5368 15.9939 15.7047 16.0907 15.8649 16.312C16.0434 16.5585 16.14 16.8612 16.14 17.16H12.14ZM13.7001 19.5457C14.1779 19.7733 14.7148 19.9273 15.2567 20.0389L16.0633 16.1211C15.6985 16.046 15.5021 15.9734 15.4199 15.9343L13.7001 19.5457ZM15.2678 20.0412C15.738 20.1352 16.2477 20.2358 16.797 20.343L17.563 16.417C17.0189 16.3109 16.5154 16.2115 16.0522 16.1188L15.2678 20.0412ZM16.8058 20.3447C17.2723 20.4335 17.7347 20.556 18.1937 20.7127L19.4863 16.9273C18.8519 16.7107 18.2077 16.5398 17.5542 16.4153L16.8058 20.3447ZM18.1937 20.7127C18.5818 20.8452 18.9209 21.0147 19.2194 21.2166L21.4606 17.9034C20.8524 17.492 20.1915 17.1681 19.4863 16.9273L18.1937 20.7127ZM19.2416 21.2314C19.4391 21.3612 19.5945 21.525 19.7206 21.7472L23.1994 19.7728C22.7655 19.0084 22.1742 18.3722 21.4384 17.8886L19.2416 21.2314ZM19.7206 21.7472C19.7869 21.8639 19.88 22.1139 19.88 22.6H23.88C23.88 21.6194 23.6931 20.6428 23.1994 19.7728L19.7206 21.7472ZM19.88 22.6C19.88 23.0401 19.7609 23.4343 19.4901 23.8295L22.7899 26.0905C23.5057 25.0457 23.88 23.8665 23.88 22.6H19.88ZM19.4856 23.8362C19.2542 24.1769 18.8528 24.5382 18.1467 24.8619L19.8133 28.4981C21.0272 27.9418 22.0658 27.1564 22.7944 26.0838L19.4856 23.8362ZM18.1677 24.8524C17.5416 25.1307 16.634 25.32 15.36 25.32V29.32C16.9927 29.32 18.4984 29.0827 19.7923 28.5076L18.1677 24.8524ZM16.4 29.4V26.8H12.4V29.4H16.4ZM14.4 28.8H17.22V24.8H14.4V28.8ZM15.22 26.8V29.4H19.22V26.8H15.22ZM17.22 27.4H14.4V31.4H17.22V27.4ZM16.4 13.2V10.6H12.4V13.2H16.4ZM14.4 12.6H17.22V8.6H14.4V12.6ZM15.22 10.6V13.2H19.22V10.6H15.22ZM17.22 11.2H14.4V15.2H17.22V11.2Z" fill="#33384B" mask="url(#path-2-outside-2_186_2241)"/>
</svg>
