<svg width="42" height="59" viewBox="0 0 42 59" fill="none" xmlns="http://www.w3.org/2000/svg">
<mask id="path-1-outside-1_300_56" maskUnits="userSpaceOnUse" x="7" y="12" width="26" height="35" fill="black">
<rect fill="white" x="7" y="12" width="26" height="35"/>
<path d="M20.176 41.512C18.2987 41.512 16.4853 41.2987 14.736 40.872C12.9867 40.4453 11.5467 39.8907 10.416 39.208L12.848 33.704C13.9147 34.3227 15.0987 34.824 16.4 35.208C17.7227 35.5707 19.0027 35.752 20.24 35.752C20.9653 35.752 21.5307 35.7093 21.936 35.624C22.3627 35.5173 22.672 35.3787 22.864 35.208C23.056 35.016 23.152 34.792 23.152 34.536C23.152 34.1307 22.928 33.8107 22.48 33.576C22.032 33.3413 21.4347 33.1493 20.688 33C19.9627 32.8293 19.1627 32.6587 18.288 32.488C17.4133 32.296 16.528 32.0507 15.632 31.752C14.7573 31.4533 13.9467 31.0587 13.2 30.568C12.4747 30.0773 11.888 29.4373 11.44 28.648C10.992 27.8373 10.768 26.8347 10.768 25.64C10.768 24.2533 11.152 22.9947 11.92 21.864C12.7093 20.712 13.872 19.7947 15.408 19.112C16.9653 18.4293 18.896 18.088 21.2 18.088C22.7147 18.088 24.208 18.248 25.68 18.568C27.152 18.888 28.4747 19.3787 29.648 20.04L27.376 25.512C26.2667 24.9573 25.1893 24.5413 24.144 24.264C23.12 23.9867 22.1173 23.848 21.136 23.848C20.4107 23.848 19.8347 23.912 19.408 24.04C18.9813 24.168 18.672 24.3387 18.48 24.552C18.3093 24.7653 18.224 25 18.224 25.256C18.224 25.64 18.448 25.9493 18.896 26.184C19.344 26.3973 19.9307 26.5787 20.656 26.728C21.4027 26.8773 22.2133 27.0373 23.088 27.208C23.984 27.3787 24.8693 27.6133 25.744 27.912C26.6187 28.2107 27.4187 28.6053 28.144 29.096C28.8907 29.5867 29.488 30.2267 29.936 31.016C30.384 31.8053 30.608 32.7867 30.608 33.96C30.608 35.3253 30.2133 36.584 29.424 37.736C28.656 38.8667 27.504 39.784 25.968 40.488C24.432 41.1707 22.5013 41.512 20.176 41.512ZM18.64 44.84V40.68H23.152V44.84H18.64ZM18.64 18.92V14.76H23.152V18.92H18.64Z"/>
</mask>
<path d="M20.176 41.512C18.2987 41.512 16.4853 41.2987 14.736 40.872C12.9867 40.4453 11.5467 39.8907 10.416 39.208L12.848 33.704C13.9147 34.3227 15.0987 34.824 16.4 35.208C17.7227 35.5707 19.0027 35.752 20.24 35.752C20.9653 35.752 21.5307 35.7093 21.936 35.624C22.3627 35.5173 22.672 35.3787 22.864 35.208C23.056 35.016 23.152 34.792 23.152 34.536C23.152 34.1307 22.928 33.8107 22.48 33.576C22.032 33.3413 21.4347 33.1493 20.688 33C19.9627 32.8293 19.1627 32.6587 18.288 32.488C17.4133 32.296 16.528 32.0507 15.632 31.752C14.7573 31.4533 13.9467 31.0587 13.2 30.568C12.4747 30.0773 11.888 29.4373 11.44 28.648C10.992 27.8373 10.768 26.8347 10.768 25.64C10.768 24.2533 11.152 22.9947 11.92 21.864C12.7093 20.712 13.872 19.7947 15.408 19.112C16.9653 18.4293 18.896 18.088 21.2 18.088C22.7147 18.088 24.208 18.248 25.68 18.568C27.152 18.888 28.4747 19.3787 29.648 20.04L27.376 25.512C26.2667 24.9573 25.1893 24.5413 24.144 24.264C23.12 23.9867 22.1173 23.848 21.136 23.848C20.4107 23.848 19.8347 23.912 19.408 24.04C18.9813 24.168 18.672 24.3387 18.48 24.552C18.3093 24.7653 18.224 25 18.224 25.256C18.224 25.64 18.448 25.9493 18.896 26.184C19.344 26.3973 19.9307 26.5787 20.656 26.728C21.4027 26.8773 22.2133 27.0373 23.088 27.208C23.984 27.3787 24.8693 27.6133 25.744 27.912C26.6187 28.2107 27.4187 28.6053 28.144 29.096C28.8907 29.5867 29.488 30.2267 29.936 31.016C30.384 31.8053 30.608 32.7867 30.608 33.96C30.608 35.3253 30.2133 36.584 29.424 37.736C28.656 38.8667 27.504 39.784 25.968 40.488C24.432 41.1707 22.5013 41.512 20.176 41.512ZM18.64 44.84V40.68H23.152V44.84H18.64ZM18.64 18.92V14.76H23.152V18.92H18.64Z" fill="#627079"/>
<path d="M14.736 40.872L15.2099 38.929L14.736 40.872ZM10.416 39.208L8.58663 38.3997L7.87504 40.0101L9.38226 40.9201L10.416 39.208ZM12.848 33.704L13.8514 31.9739L11.9207 30.8541L11.0186 32.8957L12.848 33.704ZM16.4 35.208L15.834 37.1262L15.8525 37.1317L15.8711 37.1368L16.4 35.208ZM21.936 35.624L22.348 37.5811L22.3847 37.5734L22.4211 37.5643L21.936 35.624ZM22.864 35.208L24.1927 36.7028L24.2367 36.6638L24.2782 36.6222L22.864 35.208ZM22.48 33.576L21.552 35.3477L21.552 35.3477L22.48 33.576ZM20.688 33L20.2299 34.9468L20.2627 34.9546L20.2958 34.9612L20.688 33ZM18.288 32.488L17.8592 34.4415L17.882 34.4465L17.905 34.451L18.288 32.488ZM15.632 31.752L14.9857 33.6447L14.9926 33.6471L14.9995 33.6494L15.632 31.752ZM13.2 30.568L12.0794 32.2246L12.0905 32.2321L12.1016 32.2394L13.2 30.568ZM11.44 28.648L9.68952 29.6154L9.69502 29.6253L9.70063 29.6352L11.44 28.648ZM11.92 21.864L10.2701 20.7335L10.2656 20.7402L11.92 21.864ZM15.408 19.112L14.605 17.2802L14.5957 17.2844L15.408 19.112ZM25.68 18.568L25.2551 20.5224L25.68 18.568ZM29.648 20.04L31.4951 20.8069L32.1753 19.1687L30.63 18.2977L29.648 20.04ZM27.376 25.512L26.4816 27.3009L28.4004 28.2603L29.2231 26.2789L27.376 25.512ZM24.144 24.264L23.6212 26.1945L23.6311 26.1971L24.144 24.264ZM19.408 24.04L18.8333 22.1243H18.8333L19.408 24.04ZM18.48 24.552L16.9934 23.2141L16.9546 23.2572L16.9183 23.3026L18.48 24.552ZM18.896 26.184L17.968 27.9557L18.0017 27.9733L18.0361 27.9897L18.896 26.184ZM20.656 26.728L20.2527 28.6869L20.2638 28.6892L20.656 26.728ZM23.088 27.208L22.705 29.171L22.7138 29.1727L23.088 27.208ZM25.744 27.912L25.0977 29.8047H25.0977L25.744 27.912ZM28.144 29.096L27.0234 30.7526L27.0345 30.7601L27.0456 30.7674L28.144 29.096ZM29.936 31.016L28.1966 32.0032L28.1966 32.0032L29.936 31.016ZM29.424 37.736L27.7741 36.6055L27.7696 36.6122L29.424 37.736ZM25.968 40.488L26.7803 42.3156L26.7908 42.3109L26.8013 42.3061L25.968 40.488ZM18.64 44.84H16.64V46.84H18.64V44.84ZM18.64 40.68V38.68H16.64V40.68H18.64ZM23.152 40.68H25.152V38.68H23.152V40.68ZM23.152 44.84V46.84H25.152V44.84H23.152ZM18.64 18.92H16.64V20.92H18.64V18.92ZM18.64 14.76V12.76H16.64V14.76H18.64ZM23.152 14.76H25.152V12.76H23.152V14.76ZM23.152 18.92V20.92H25.152V18.92H23.152ZM20.176 39.512C18.4515 39.512 16.7976 39.3162 15.2099 38.929L14.2621 42.815C16.173 43.2811 18.1458 43.512 20.176 43.512V39.512ZM15.2099 38.929C13.5914 38.5342 12.3564 38.0433 11.4497 37.4959L9.38226 40.9201C10.7369 41.738 12.3819 42.3565 14.2621 42.815L15.2099 38.929ZM12.2454 40.0163L14.6774 34.5123L11.0186 32.8957L8.58663 38.3997L12.2454 40.0163ZM11.8446 35.4341C13.062 36.1402 14.395 36.7016 15.834 37.1262L16.966 33.2898C15.8024 32.9464 14.7673 32.5052 13.8514 31.9739L11.8446 35.4341ZM15.8711 37.1368C17.3477 37.5417 18.8058 37.752 20.24 37.752V33.752C19.1995 33.752 18.0976 33.5997 16.9289 33.2792L15.8711 37.1368ZM20.24 37.752C21.0172 37.752 21.7428 37.7085 22.348 37.5811L21.524 33.6669C21.3185 33.7102 20.9135 33.752 20.24 33.752V37.752ZM22.4211 37.5643C22.9669 37.4278 23.6448 37.1898 24.1927 36.7028L21.5353 33.7132C21.5854 33.6686 21.6258 33.6415 21.6478 33.6279C21.6698 33.6143 21.6789 33.6109 21.6699 33.615C21.6611 33.6189 21.6393 33.6281 21.6015 33.6406C21.564 33.6531 21.5144 33.6679 21.4509 33.6837L22.4211 37.5643ZM24.2782 36.6222C24.82 36.0804 25.152 35.3571 25.152 34.536H21.152C21.152 34.4071 21.1777 34.2576 21.2417 34.1082C21.3048 33.961 21.3864 33.8572 21.4498 33.7938L24.2782 36.6222ZM25.152 34.536C25.152 33.1907 24.3212 32.2827 23.408 31.8043L21.552 35.3477C21.5735 35.3589 21.463 35.3067 21.3455 35.1389C21.213 34.9495 21.152 34.7272 21.152 34.536H25.152ZM23.408 31.8043C22.7292 31.4488 21.9294 31.2087 21.0802 31.0388L20.2958 34.9612C20.9399 35.09 21.3348 35.2339 21.552 35.3477L23.408 31.8043ZM21.1461 31.0532C20.3916 30.8756 19.5661 30.6997 18.671 30.525L17.905 34.451C18.7592 34.6177 19.5338 34.783 20.2299 34.9468L21.1461 31.0532ZM18.7168 30.5345C17.9146 30.3584 17.0972 30.1322 16.2645 29.8546L14.9995 33.6494C15.9588 33.9691 16.9121 34.2336 17.8592 34.4415L18.7168 30.5345ZM16.2783 29.8593C15.5575 29.6132 14.8995 29.2916 14.2984 28.8966L12.1016 32.2394C12.9939 32.8257 13.9572 33.2935 14.9857 33.6447L16.2783 29.8593ZM14.3206 28.9114C13.8597 28.5996 13.4811 28.1924 13.1794 27.6608L9.70063 29.6352C10.2949 30.6823 11.0896 31.555 12.0794 32.2246L14.3206 28.9114ZM13.1905 27.6806C12.9469 27.2398 12.768 26.5918 12.768 25.64H8.768C8.768 27.0775 9.03714 28.4349 9.68952 29.6154L13.1905 27.6806ZM12.768 25.64C12.768 24.6479 13.0351 23.7818 13.5744 22.9878L10.2656 20.7402C9.26893 22.2075 8.768 23.8588 8.768 25.64H12.768ZM13.5699 22.9945C14.1108 22.2049 14.9533 21.5027 16.2203 20.9396L14.5957 17.2844C12.7907 18.0866 11.3078 19.2191 10.2701 20.7335L13.5699 22.9945ZM16.211 20.9437C17.4423 20.404 19.0799 20.088 21.2 20.088V16.088C18.7121 16.088 16.4884 16.4547 14.605 17.2803L16.211 20.9437ZM21.2 20.088C22.5726 20.088 23.9235 20.2329 25.2551 20.5224L26.1049 16.6136C24.4925 16.2631 22.8567 16.088 21.2 16.088V20.088ZM25.2551 20.5224C26.5547 20.8049 27.686 21.2299 28.666 21.7823L30.63 18.2977C29.2634 17.5274 27.7493 16.9711 26.1049 16.6136L25.2551 20.5224ZM27.8009 19.2731L25.5289 24.7451L29.2231 26.2789L31.4951 20.8069L27.8009 19.2731ZM28.2704 23.7231C27.0565 23.1162 25.8515 22.6478 24.6569 22.3309L23.6311 26.1971C24.5272 26.4348 25.4768 26.7985 26.4816 27.3009L28.2704 23.7231ZM24.6668 22.3335C23.4861 22.0138 22.3076 21.848 21.136 21.848V25.848C21.9271 25.848 22.7539 25.9596 23.6212 26.1945L24.6668 22.3335ZM21.136 21.848C20.3218 21.848 19.5261 21.9165 18.8333 22.1243L19.9827 25.9557C20.1432 25.9075 20.4995 25.848 21.136 25.848V21.848ZM18.8333 22.1243C18.2333 22.3043 17.5307 22.6171 16.9934 23.2141L19.9666 25.8899C19.9246 25.9366 19.8875 25.9683 19.8622 25.9878C19.8494 25.9975 19.8394 26.0044 19.8327 26.0087C19.826 26.0131 19.8223 26.0151 19.8222 26.0152C19.822 26.0152 19.8251 26.0135 19.8318 26.0103C19.8386 26.0072 19.8485 26.0027 19.862 25.9972C19.8895 25.9861 19.929 25.9718 19.9827 25.9557L18.8333 22.1243ZM16.9183 23.3026C16.4843 23.845 16.224 24.5142 16.224 25.256H20.224C20.224 25.3551 20.2066 25.4642 20.1676 25.5715C20.1292 25.6772 20.0797 25.7539 20.0417 25.8014L16.9183 23.3026ZM16.224 25.256C16.224 26.6236 17.1043 27.5033 17.968 27.9557L19.824 24.4123C19.7888 24.3939 19.8937 24.4397 20.0119 24.603C20.1484 24.7915 20.224 25.0292 20.224 25.256H16.224ZM18.0361 27.9897C18.682 28.2973 19.4388 28.5193 20.2527 28.6869L21.0593 24.7691C20.4225 24.638 20.0061 24.4974 19.7559 24.3783L18.0361 27.9897ZM20.2638 28.6892C21.014 28.8392 21.8277 28.9998 22.705 29.171L23.471 25.245C22.5989 25.0749 21.7914 24.9155 21.0482 24.7668L20.2638 28.6892ZM22.7138 29.1727C23.5163 29.3255 24.3107 29.536 25.0977 29.8047L26.3903 26.0193C25.4279 25.6907 24.4517 25.4318 23.4622 25.2433L22.7138 29.1727ZM25.0977 29.8047C25.8138 30.0492 26.4529 30.3667 27.0234 30.7526L29.2646 27.4394C28.3844 26.844 27.4235 26.3721 26.3903 26.0193L25.0977 29.8047ZM27.0456 30.7674C27.5231 31.0812 27.9025 31.485 28.1966 32.0032L31.6754 30.0288C31.0735 28.9684 30.2582 28.0922 29.2424 27.4246L27.0456 30.7674ZM28.1966 32.0032C28.4309 32.4159 28.608 33.0339 28.608 33.96H32.608C32.608 32.5394 32.3371 31.1948 31.6754 30.0288L28.1966 32.0032ZM28.608 33.96C28.608 34.9121 28.3409 35.7783 27.7741 36.6055L31.0739 38.8665C32.0857 37.3897 32.608 35.7385 32.608 33.96H28.608ZM27.7696 36.6122C27.2502 37.3769 26.4168 38.0822 25.1347 38.6699L26.8013 42.3061C28.5912 41.4858 30.0618 40.3564 31.0784 38.8598L27.7696 36.6122ZM25.1557 38.6604C23.9536 39.1947 22.322 39.512 20.176 39.512V43.512C22.6807 43.512 24.9104 43.1467 26.7803 42.3156L25.1557 38.6604ZM20.64 44.84V40.68H16.64V44.84H20.64ZM18.64 42.68H23.152V38.68H18.64V42.68ZM21.152 40.68V44.84H25.152V40.68H21.152ZM23.152 42.84H18.64V46.84H23.152V42.84ZM20.64 18.92V14.76H16.64V18.92H20.64ZM18.64 16.76H23.152V12.76H18.64V16.76ZM21.152 14.76V18.92H25.152V14.76H21.152ZM23.152 16.92H18.64V20.92H23.152V16.92Z" fill="#33384B" mask="url(#path-1-outside-1_300_56)"/>
</svg>
