<svg width="59" height="59" viewBox="0 0 59 59" fill="none" xmlns="http://www.w3.org/2000/svg">
<mask id="path-1-outside-1_204_13" maskUnits="userSpaceOnUse" x="7" y="16" width="45" height="27" fill="black">
<rect fill="white" x="7" y="16" width="45" height="27"/>
<path d="M17.488 41L10.32 18.6H18.096L23.888 37.512H19.984L26.128 18.6H33.072L38.8 37.512H35.056L41.104 18.6H48.272L41.104 41H33.008L28.336 25.512H30.512L25.584 41H17.488Z"/>
</mask>
<path d="M17.488 41L10.32 18.6H18.096L23.888 37.512H19.984L26.128 18.6H33.072L38.8 37.512H35.056L41.104 18.6H48.272L41.104 41H33.008L28.336 25.512H30.512L25.584 41H17.488Z" fill="#627079"/>
<path d="M17.488 41L15.5832 41.6096L16.0281 43H17.488V41ZM10.32 18.6V16.6H7.5801L8.41515 19.2095L10.32 18.6ZM18.096 18.6L20.0083 18.0143L19.5752 16.6H18.096V18.6ZM23.888 37.512V39.512H26.5922L25.8003 36.9263L23.888 37.512ZM19.984 37.512L18.0819 36.894L17.2314 39.512H19.984V37.512ZM26.128 18.6V16.6H24.6749L24.2259 17.982L26.128 18.6ZM33.072 18.6L34.9861 18.0203L34.556 16.6H33.072V18.6ZM38.8 37.512V39.512H41.4955L40.7141 36.9323L38.8 37.512ZM35.056 37.512L33.151 36.9028L32.3166 39.512H35.056V37.512ZM41.104 18.6V16.6H39.6438L39.199 17.9908L41.104 18.6ZM48.272 18.6L50.1769 19.2095L51.0119 16.6H48.272V18.6ZM41.104 41V43H42.5639L43.0089 41.6096L41.104 41ZM33.008 41L31.0932 41.5776L31.5223 43H33.008V41ZM28.336 25.512V23.512H25.6437L26.4212 26.0896L28.336 25.512ZM30.512 25.512L32.4179 26.1184L33.2472 23.512H30.512V25.512ZM25.584 41V43H27.0464L27.4899 41.6064L25.584 41ZM19.3928 40.3904L12.2248 17.9904L8.41515 19.2095L15.5832 41.6096L19.3928 40.3904ZM10.32 20.6H18.096V16.6H10.32V20.6ZM16.1837 19.1857L21.9757 38.0977L25.8003 36.9263L20.0083 18.0143L16.1837 19.1857ZM23.888 35.512H19.984V39.512H23.888V35.512ZM21.8861 38.13L28.0301 19.218L24.2259 17.982L18.0819 36.894L21.8861 38.13ZM26.128 20.6H33.072V16.6H26.128V20.6ZM31.1579 19.1797L36.8859 38.0917L40.7141 36.9323L34.9861 18.0203L31.1579 19.1797ZM38.8 35.512H35.056V39.512H38.8V35.512ZM36.961 38.1212L43.009 19.2092L39.199 17.9908L33.151 36.9028L36.961 38.1212ZM41.104 20.6H48.272V16.6H41.104V20.6ZM46.3672 17.9904L39.1992 40.3904L43.0089 41.6096L50.1769 19.2095L46.3672 17.9904ZM41.104 39H33.008V43H41.104V39ZM34.9228 40.4224L30.2508 24.9344L26.4212 26.0896L31.0932 41.5776L34.9228 40.4224ZM28.336 27.512H30.512V23.512H28.336V27.512ZM28.6061 24.9056L23.6781 40.3936L27.4899 41.6064L32.4179 26.1184L28.6061 24.9056ZM25.584 39H17.488V43H25.584V39Z" fill="#33384B" mask="url(#path-1-outside-1_204_13)"/>
</svg>
